<?xml version="1.0" encoding="utf-8"?>
<!-- Generator: Adobe Illustrator 23.0.0, SVG Export Plug-In . SVG Version: 6.00 Build 0)  -->
<svg version="1.1" id="Layer_1" xmlns="http://www.w3.org/2000/svg" xmlns:xlink="http://www.w3.org/1999/xlink" x="0px" y="0px"
	 viewBox="0 0 508 508" style="enable-background:new 0 0 508 508;" xml:space="preserve">
<style type="text/css">
	.st0{fill:#FCE06F;}
	.st1{fill:#324A5E;}
	.st2{fill:#FFFFFF;}
	.st3{fill:#2B3B4E;}
	.st4{fill:#436E7D;}
	.st5{fill:#8F8F8F;}
	.st6{fill:#ABABAB;}
	.st7{fill:#A6A6A6;}
	.st8{fill:#FF7058;}
	.st9{fill:#E6E9EE;}
</style>
<circle class="st0" cx="254" cy="254" r="254"/>
<path class="st1" d="M34.8,382c44,75.2,125.6,126,219.2,126s175.2-50.4,219.2-126H34.8z"/>
<path class="st2" d="M454.8,279.3v56h-21.6v10.8h-22c-0.8-16.4-14.4-29.6-31.2-29.6c-16.4,0-30,13.2-31.2,29.6h-13.6v-144H412
	L454.8,279.3z"/>
<path class="st3" d="M335.6,312.1v27.2h-44v-9.2c0-3.2-2.4-5.6-5.6-5.6h-69.6c-3.2,0-5.6,2.4-5.6,5.6v9.2h-56.4
	c-3.6-13.2-15.6-22.8-30-22.8s-26.4,9.6-30,22.8H67.2v-27.2H335.6z"/>
<path class="st4" d="M335.6,312.1H67.2c-7.6,0-14-6.4-14-14V160.5c0-7.6,6.4-14,14-14h254.4c7.6,0,14,6.4,14,14L335.6,312.1
	L335.6,312.1z"/>
<polygon class="st5" points="433.2,272.1 403,215.6 346.3,215.6 346.3,272.1 "/>
<polygon class="st6" points="383.4,272.1 433.2,272.1 403,215.6 399,215.6 "/>
<circle class="st1" cx="124.4" cy="347.7" r="33.7"/>
<g>
	<circle class="st7" cx="124.4" cy="347.7" r="20"/>
	<path class="st7" d="M286,352.9h-69.2c-3.2,0-5.6-2.4-5.6-5.6v-17.6c0-3.2,2.4-5.6,5.6-5.6H286c3.2,0,5.6,2.4,5.6,5.6v17.6
		C291.6,350.5,289.2,352.9,286,352.9z"/>
</g>
<rect x="443.2" y="307.3" class="st8" width="11.6" height="23.2"/>
<path class="st9" d="M366.6,283.3h-15.2c-2.8,0-5.2-2.4-5.2-5.2v-1.6h25.6v2C371.8,281.3,369.4,283.3,366.6,283.3z"/>
<path class="st1" d="M455.2,335.3h-22v16h22c2,0,3.6-1.6,3.6-3.6v-8.4C458.8,336.9,457.2,335.3,455.2,335.3z"/>
<path class="st3" d="M418.4,346.1h-4.7c-0.9-17.7-15.5-31.9-33.6-31.9s-32.8,14.2-33.6,31.9h-4.7c0.9-20.3,17.7-36.7,38.4-36.7
	S417.5,325.4,418.4,346.1z"/>
<circle class="st1" cx="380" cy="347.7" r="33.7"/>
<circle class="st7" cx="380" cy="347.7" r="20"/>
<rect x="53.2" y="200.1" class="st8" width="282.4" height="50"/>
</svg>
