<svg preserveAspectRatio="none" xmlns="http://www.w3.org/2000/svg" width="1224.656" height="708.377" viewBox="0 0 1224.656 708.377"><defs><style>.a{fill:#5290ec;stroke:#707070;opacity:0.12;}</style></defs><g transform="translate(-1032.932 -5115.873)"><path class="a" d="M710.813,5969l-98.589,83.232L749,6090.667Z" transform="translate(1507.832 -267.148)"/><path class="a" d="M118.6,4.693,0,0,100.339,83.165Z" transform="matrix(0.829, -0.559, 0.559, 0.829, 1924.18, 5479.362)"/><path class="a" d="M99.333,0,45.5.8,0,1.48,53.262,107.511Z" transform="translate(1033.786 5126.844) rotate(-6)"/><path class="a" d="M92.681,0,0,.776l28.329,107.84Z" transform="translate(2151.841 5174.668) rotate(17)"/><path class="a" d="M90.007,37.164,0,0,5.295,140.528Z" transform="translate(1393.877 5448.46) rotate(-6)"/><path class="a" d="M129.061,64.2,0,0,7.592,242.778Z" transform="translate(1626.359 5521.376) rotate(-79)"/></g></svg>