<?xml version="1.0" encoding="utf-8"?>
<!-- Generator: Adobe Illustrator 23.0.0, SVG Export Plug-In . SVG Version: 6.00 Build 0)  -->
<svg version="1.1" id="Layer_1" xmlns="http://www.w3.org/2000/svg" xmlns:xlink="http://www.w3.org/1999/xlink" x="0px" y="0px"
	 viewBox="0 0 507.8 507.8" style="enable-background:new 0 0 507.8 507.8;" xml:space="preserve">
<style type="text/css">
	.st0{fill:#324A5E;}
	.st1{fill:#F9B54C;}
	.st2{fill:#FFD05B;}
	.st3{fill:#FF7058;}
	.st4{fill:#FFFFFF;}
</style>
<circle class="st0" cx="253.9" cy="253.9" r="253.9"/>
<path class="st1" d="M381.2,423.4H126.6c-2.3,0-4.2-1.9-4.2-4.2V184.5h263.1v234.7C385.5,421.5,383.6,423.4,381.2,423.4z"/>
<polygon class="st2" points="410.7,259.8 385.5,184.5 122.3,184.5 97.1,259.8 "/>
<g>
	<polygon class="st3" points="184.8,102.2 184.8,170.2 211.9,170.2 211.9,102.2 240,102.2 198.3,60.6 156.7,102.2 	"/>
	<polygon class="st3" points="295.9,102.2 295.9,170.2 323,170.2 323,102.2 351.1,102.2 309.5,60.6 267.8,102.2 	"/>
</g>
<g>
	<polygon class="st4" points="152.6,354 152.6,389.9 161.9,389.9 161.9,354 171.6,354 157.2,332 142.9,354 	"/>
	<polygon class="st4" points="188.2,354 188.2,389.9 197.5,389.9 197.5,354 207.2,354 192.8,332 178.5,354 	"/>
	<rect x="142.8" y="395.2" class="st4" width="64.5" height="5.3"/>
</g>
</svg>
