<?xml version="1.0" encoding="utf-8"?>
<!-- Generator: Adobe Illustrator 23.0.0, SVG Export Plug-In . SVG Version: 6.00 Build 0)  -->
<svg version="1.1" id="Layer_1" xmlns="http://www.w3.org/2000/svg" xmlns:xlink="http://www.w3.org/1999/xlink" x="0px" y="0px"
	 viewBox="0 0 508 508" style="enable-background:new 0 0 508 508;" xml:space="preserve">
<style type="text/css">
	.st0{fill:#324A5E;}
	.st1{fill:#2B3B4E;}
	.st2{fill:#F9B54C;}
	.st3{fill:#E6E9EE;}
	.st4{fill:#4CDBC4;}
	.st5{fill:#2C9984;}
	.st6{fill:#FFFFFF;}
	.st7{fill:#FF7058;}
	.st8{fill:#FFD05B;}
</style>
<circle class="st0" cx="254" cy="254" r="254"/>
<path class="st1" d="M81.2,440c45.2,42,106,68,172.8,68s127.6-26,172.8-68H81.2z"/>
<path class="st2" d="M247.6,384.8l-126.4-27.6c-4-0.8-6.8-5.2-6-9.2l26.4-119.6c0.8-4,5.2-6.8,9.2-6L277.2,250c4,0.8,6.8,5.2,6,9.2
	l-26.4,119.6C256,383.2,252,385.6,247.6,384.8z"/>
<path class="st3" d="M267.6,402.8l-161.2-35.2c-3.6-0.8-6-4.4-5.2-8s4.4-6,8-5.2l154.4,34l53.6-243.6c0.4-1.6,1.6-3.2,2.8-4
	L396.4,92c3.2-2,7.2-1.2,9.2,2s1.2,7.2-2,9.2l-74,47.2l-54.4,247.2C274.4,401.2,271.2,403.6,267.6,402.8z"/>
<circle class="st4" cx="268.8" cy="396" r="44.4"/>
<circle class="st5" cx="268.8" cy="396.4" r="30.8"/>
<circle class="st6" cx="268.8" cy="396.4" r="26.4"/>
<g>
	<path class="st3" d="M279.6,384.8c-0.8,3.2-3.6,0-8-0.8s-8.4,0.4-7.6-2.8c0.8-3.2,4.8-4.8,9.2-4C277.2,378.4,280.4,382,279.6,384.8
		z"/>
	<path class="st3" d="M258,407.6c0.8-3.2,3.6,0,8,0.8s8.4-0.4,7.6,2.8c-0.8,3.2-4.8,4.8-9.2,4C260.4,414,257.6,410.8,258,407.6z"/>
	<path class="st3" d="M280,406.8c-3.2-0.8,0-3.6,0.8-8s-0.4-8.4,2.8-7.6c3.2,0.8,4.8,4.8,4,9.2C286.4,404.8,283.2,407.6,280,406.8z"
		/>
	<path class="st3" d="M257.6,385.6c3.2,0.8,0,3.6-0.8,8s0.4,8.4-2.8,7.6s-4.8-4.8-4-9.2C251.2,388,254.4,384.8,257.6,385.6z"/>
	<circle class="st3" cx="268.8" cy="396.4" r="6.8"/>
</g>
<rect x="200.8" y="230.7" transform="matrix(0.2144 -0.9767 0.9767 0.2144 -74.7353 400.5436)" class="st7" width="21.6" height="32"/>
<path class="st8" d="M279.2,250.8l-96.4-21.2c-3.2-0.8-5.2-4-4.4-7.2l20-91.2c0.8-3.2,4-5.2,7.2-4.4L302,148c3.2,0.8,5.2,4,4.4,7.2
	L286,246C285.6,249.2,282.4,251.2,279.2,250.8z"/>
<rect x="243.3" y="132.8" transform="matrix(0.2144 -0.9767 0.9767 0.2144 55.9596 359.4817)" class="st7" width="16.4" height="24.4"/>
</svg>
